<mxfile host="Electron" modified="2024-07-02T20:00:30.962Z" agent="Mozilla/5.0 (Windows NT 10.0; Win64; x64) AppleWebKit/537.36 (KHTML, like Gecko) draw.io/24.4.13 Chrome/124.0.6367.207 Electron/30.0.6 Safari/537.36" etag="mIlm1gFMXx1FyCgjCKUJ" version="24.4.13" type="device">
  <diagram name="Page-1" id="-fzCIf-CA1cX_L5HMafl">
    <mxGraphModel dx="1839" dy="577" grid="1" gridSize="10" guides="0" tooltips="1" connect="0" arrows="1" fold="1" page="1" pageScale="1" pageWidth="850" pageHeight="1100" math="0" shadow="0">
      <root>
        <mxCell id="0" />
        <mxCell id="1" parent="0" />
        <mxCell id="kqKWhMMOoiWkvxPiHcDl-1" value="Speed query" style="rhombus;whiteSpace=wrap;html=1;fontFamily=&quot;Latin Modern Regular 12&quot;;" parent="1" vertex="1">
          <mxGeometry x="20" y="350" width="80" height="80" as="geometry" />
        </mxCell>
        <mxCell id="kqKWhMMOoiWkvxPiHcDl-7" value="Attacker" style="rounded=0;whiteSpace=wrap;html=1;verticalAlign=bottom;fontFamily=&quot;Latin Modern Regular 12&quot;;" parent="1" vertex="1">
          <mxGeometry x="130" y="440" width="220" height="50" as="geometry" />
        </mxCell>
        <mxCell id="kqKWhMMOoiWkvxPiHcDl-9" value="Increase speed" style="rounded=1;whiteSpace=wrap;html=1;fontFamily=&quot;Latin Modern Regular 12&quot;;" parent="1" vertex="1">
          <mxGeometry x="260" y="450" width="80" height="20" as="geometry" />
        </mxCell>
        <mxCell id="kqKWhMMOoiWkvxPiHcDl-15" value="Priority:&lt;br&gt;-10000" style="text;html=1;align=center;verticalAlign=middle;whiteSpace=wrap;rounded=0;fontFamily=&quot;Latin Modern Regular 12&quot;;" parent="1" vertex="1">
          <mxGeometry x="270" y="350" width="60" height="30" as="geometry" />
        </mxCell>
        <mxCell id="kqKWhMMOoiWkvxPiHcDl-16" value="Priority:&lt;br&gt;0" style="text;html=1;align=center;verticalAlign=middle;whiteSpace=wrap;rounded=0;fontFamily=&quot;Latin Modern Regular 12&quot;;" parent="1" vertex="1">
          <mxGeometry x="510" y="350" width="60" height="30" as="geometry" />
        </mxCell>
        <mxCell id="kqKWhMMOoiWkvxPiHcDl-19" value="Slowing building" style="rounded=0;whiteSpace=wrap;html=1;verticalAlign=bottom;fontFamily=&quot;Latin Modern Regular 12&quot;;" parent="1" vertex="1">
          <mxGeometry x="390" y="440" width="100" height="50" as="geometry" />
        </mxCell>
        <mxCell id="kqKWhMMOoiWkvxPiHcDl-20" value="Slow down" style="rounded=1;whiteSpace=wrap;html=1;fontFamily=&quot;Latin Modern Regular 12&quot;;" parent="1" vertex="1">
          <mxGeometry x="400" y="450" width="80" height="20" as="geometry" />
        </mxCell>
        <mxCell id="5Kx21WsWKAmDBl2EXS5E-5" value="" style="endArrow=oval;html=1;rounded=0;endFill=1;" parent="1" edge="1">
          <mxGeometry width="50" height="50" relative="1" as="geometry">
            <mxPoint x="100" y="390" as="sourcePoint" />
            <mxPoint x="540" y="390" as="targetPoint" />
          </mxGeometry>
        </mxCell>
        <mxCell id="5Kx21WsWKAmDBl2EXS5E-6" value="Attacker" style="edgeLabel;html=1;align=center;verticalAlign=middle;resizable=0;points=[];fontSize=12;fontFamily=&quot;Latin Modern Regular 12&quot;;fontStyle=3" parent="5Kx21WsWKAmDBl2EXS5E-5" vertex="1" connectable="0">
          <mxGeometry x="-0.0905" y="1" relative="1" as="geometry">
            <mxPoint x="-170" as="offset" />
          </mxGeometry>
        </mxCell>
        <mxCell id="5Kx21WsWKAmDBl2EXS5E-7" value="" style="endArrow=classic;html=1;rounded=0;" parent="1" edge="1">
          <mxGeometry width="50" height="50" relative="1" as="geometry">
            <mxPoint x="300" y="390" as="sourcePoint" />
            <mxPoint x="300" y="450" as="targetPoint" />
          </mxGeometry>
        </mxCell>
        <mxCell id="kqKWhMMOoiWkvxPiHcDl-11" value="2" style="endArrow=classic;html=1;rounded=0;edgeStyle=elbowEdgeStyle;fontStyle=1;fontSize=16;fontFamily=&quot;Latin Modern Regular 12&quot;;elbow=vertical;" parent="1" edge="1">
          <mxGeometry width="50" height="50" relative="1" as="geometry">
            <mxPoint x="320" y="450" as="sourcePoint" />
            <mxPoint x="420" y="450" as="targetPoint" />
            <Array as="points">
              <mxPoint x="550" y="410" />
            </Array>
            <mxPoint as="offset" />
          </mxGeometry>
        </mxCell>
        <mxCell id="5Kx21WsWKAmDBl2EXS5E-8" value="Priority:&lt;br&gt;-100" style="text;html=1;align=center;verticalAlign=middle;whiteSpace=wrap;rounded=0;fontFamily=&quot;Latin Modern Regular 12&quot;;" parent="1" vertex="1">
          <mxGeometry x="410" y="350" width="60" height="30" as="geometry" />
        </mxCell>
        <mxCell id="5Kx21WsWKAmDBl2EXS5E-9" value="" style="endArrow=classic;html=1;rounded=0;" parent="1" edge="1">
          <mxGeometry width="50" height="50" relative="1" as="geometry">
            <mxPoint x="440" y="390" as="sourcePoint" />
            <mxPoint x="440" y="450" as="targetPoint" />
          </mxGeometry>
        </mxCell>
        <mxCell id="5Kx21WsWKAmDBl2EXS5E-10" value="1.5" style="endArrow=classic;html=1;rounded=0;edgeStyle=elbowEdgeStyle;fontStyle=1;fontSize=16;fontFamily=&quot;Latin Modern Regular 12&quot;;elbow=vertical;" parent="1" edge="1">
          <mxGeometry width="50" height="50" relative="1" as="geometry">
            <mxPoint x="460" y="450" as="sourcePoint" />
            <mxPoint x="580" y="410" as="targetPoint" />
            <Array as="points">
              <mxPoint x="690" y="410" />
            </Array>
            <mxPoint as="offset" />
          </mxGeometry>
        </mxCell>
        <mxCell id="lx4A6oJkdFqsgXesMw7U-2" value="Get base speed" style="rounded=1;whiteSpace=wrap;html=1;fontFamily=&quot;Latin Modern Regular 12&quot;;" vertex="1" parent="1">
          <mxGeometry x="140" y="450" width="80" height="20" as="geometry" />
        </mxCell>
        <mxCell id="lx4A6oJkdFqsgXesMw7U-3" value="" style="endArrow=classic;html=1;rounded=0;" edge="1" parent="1">
          <mxGeometry width="50" height="50" relative="1" as="geometry">
            <mxPoint x="160" y="390" as="sourcePoint" />
            <mxPoint x="160" y="450" as="targetPoint" />
          </mxGeometry>
        </mxCell>
        <mxCell id="lx4A6oJkdFqsgXesMw7U-6" value="Result" style="text;html=1;align=left;verticalAlign=middle;whiteSpace=wrap;rounded=0;fontFamily=&quot;Latin Modern Regular 12&quot;;" vertex="1" parent="1">
          <mxGeometry x="580" y="400" width="40" height="20" as="geometry" />
        </mxCell>
        <mxCell id="lx4A6oJkdFqsgXesMw7U-8" value="1" style="endArrow=classic;html=1;rounded=0;edgeStyle=elbowEdgeStyle;fontStyle=1;fontSize=16;fontFamily=&quot;Latin Modern Regular 12&quot;;elbow=vertical;" edge="1" parent="1">
          <mxGeometry width="50" height="50" relative="1" as="geometry">
            <mxPoint x="200" y="450" as="sourcePoint" />
            <mxPoint x="280" y="450" as="targetPoint" />
            <Array as="points">
              <mxPoint x="240" y="410" />
            </Array>
            <mxPoint as="offset" />
          </mxGeometry>
        </mxCell>
        <mxCell id="lx4A6oJkdFqsgXesMw7U-9" value="Provider" style="endArrow=baseDash;html=1;rounded=0;endFill=0;startArrow=baseDash;startFill=0;strokeColor=#666666;fontStyle=2;fontFamily=&quot;Latin Modern Regular 12&quot;;fontSize=12;" edge="1" parent="1">
          <mxGeometry y="10" width="50" height="50" relative="1" as="geometry">
            <mxPoint x="130" y="340" as="sourcePoint" />
            <mxPoint x="230" y="340" as="targetPoint" />
            <mxPoint as="offset" />
          </mxGeometry>
        </mxCell>
        <mxCell id="lx4A6oJkdFqsgXesMw7U-10" value="Modifers" style="endArrow=baseDash;html=1;rounded=0;endFill=0;startArrow=baseDash;startFill=0;strokeColor=#666666;fontStyle=2;fontFamily=&quot;Latin Modern Regular 12&quot;;fontSize=12;" edge="1" parent="1">
          <mxGeometry y="10" width="50" height="50" relative="1" as="geometry">
            <mxPoint x="250" y="340" as="sourcePoint" />
            <mxPoint x="490" y="340" as="targetPoint" />
            <mxPoint as="offset" />
          </mxGeometry>
        </mxCell>
        <mxCell id="lx4A6oJkdFqsgXesMw7U-12" value="" style="endArrow=classic;html=1;rounded=0;endFill=1;" edge="1" parent="1">
          <mxGeometry width="50" height="50" relative="1" as="geometry">
            <mxPoint x="-60" y="390" as="sourcePoint" />
            <mxPoint x="20" y="390" as="targetPoint" />
          </mxGeometry>
        </mxCell>
        <mxCell id="lx4A6oJkdFqsgXesMw7U-13" value="Attacker" style="edgeLabel;html=1;align=center;verticalAlign=middle;resizable=0;points=[];fontSize=12;fontFamily=&quot;Latin Modern Regular 12&quot;;fontStyle=3" vertex="1" connectable="0" parent="lx4A6oJkdFqsgXesMw7U-12">
          <mxGeometry x="-0.0905" y="1" relative="1" as="geometry">
            <mxPoint x="3" y="1" as="offset" />
          </mxGeometry>
        </mxCell>
      </root>
    </mxGraphModel>
  </diagram>
</mxfile>
